<svg width="80" height="80" viewBox="0 0 80 80" fill="none" xmlns="http://www.w3.org/2000/svg">
<path d="M27.6667 57.6667L12.3333 42.3333C12 42 11.7644 41.6389 11.6267 41.25C11.4867 40.8611 11.4167 40.4445 11.4167 40C11.4167 39.5556 11.4867 39.1389 11.6267 38.75C11.7644 38.3611 12 38 12.3333 37.6667L27.75 22.25C28.3611 21.6389 29.1111 21.3333 30 21.3333C30.8889 21.3333 31.6667 21.6667 32.3333 22.3333C32.9444 22.9445 33.25 23.7222 33.25 24.6667C33.25 25.6111 32.9444 26.3889 32.3333 27L22.6667 36.6667H66.6667C67.6111 36.6667 68.4022 36.9856 69.04 37.6233C69.68 38.2633 70 39.0556 70 40C70 40.9445 69.68 41.7356 69.04 42.3733C68.4022 43.0133 67.6111 43.3333 66.6667 43.3333H22.6667L32.4167 53.0833C33.0278 53.6945 33.3333 54.4445 33.3333 55.3333C33.3333 56.2222 33 57 32.3333 57.6667C31.7222 58.2778 30.9444 58.5833 30 58.5833C29.0556 58.5833 28.2778 58.2778 27.6667 57.6667Z" fill="#8FB5FF"/>
</svg>
